<svg width="81" height="67" viewBox="0 0 81 67" fill="none" xmlns="http://www.w3.org/2000/svg">
<g filter="url(#filter0_d_164_703)">
<path d="M73.2923 38.841C72.0996 37.0719 69.4404 35.9887 66.6647 37.3406C65.6804 37.82 64.585 38.3628 63.4192 38.9445V15.386C63.4192 15.1548 63.3158 14.9332 63.1315 14.7697C62.9473 14.6063 62.6975 14.5145 62.437 14.5145H56.6923C57.0692 13.8777 57.4278 13.2275 57.7681 12.5638L59.9571 13.1869C60.1253 13.2348 60.3048 13.2416 60.477 13.2066C60.6491 13.1716 60.8074 13.096 60.9352 12.9879C61.063 12.8798 61.1557 12.7431 61.2033 12.5923C61.2509 12.4414 61.2519 12.2819 61.206 12.1306L58.6321 3.64537C58.5914 3.51085 58.5149 3.38695 58.4091 3.28406C58.3032 3.18116 58.1712 3.10228 58.0239 3.05401C57.8766 3.00573 57.7185 2.98948 57.5627 3.00662C57.4069 3.02375 57.2579 3.07378 57.1284 3.15249L49.2081 7.96712C49.0637 8.05491 48.9484 8.17532 48.874 8.31592C48.7997 8.45651 48.7691 8.61218 48.7853 8.7668C48.8015 8.92143 48.864 9.0694 48.9663 9.1954C49.0686 9.3214 49.207 9.42086 49.3672 9.48349L51.8565 10.4564C48.5097 18.4878 40.9033 23.7126 35.0202 26.7085C28.3824 30.0886 22.4187 31.4549 22.3596 31.4681C22.1274 31.5203 21.9247 31.6458 21.7896 31.8213C21.6545 31.9967 21.5963 32.2099 21.6259 32.4207C21.6555 32.6316 21.7709 32.8255 21.9504 32.9662C22.1299 33.1068 22.3612 33.1844 22.6007 33.1844H22.6081C22.7076 33.1844 23.6796 33.1728 25.2624 33.0101V38.716C20.8093 39.5347 16.022 41.1817 14.2753 41.8117C13.8891 41.5168 13.4114 41.3324 12.905 41.2828C12.3985 41.2332 11.887 41.3206 11.4375 41.5336L8.23627 43.0563C7.79475 43.2667 7.43371 43.5888 7.199 43.9817C6.96429 44.3746 6.86652 44.8205 6.9181 45.2628L4.73066 46.294C3.96602 46.6556 3.39457 47.2719 3.14196 48.0073C2.88935 48.7427 2.97626 49.537 3.38359 50.2156L8.42107 58.4637C8.82741 59.1418 9.52067 59.6488 10.3484 59.8734C11.1761 60.098 12.0704 60.0217 12.8347 59.6613L14.9921 58.6442C15.4423 58.965 16.0024 59.1401 16.5798 59.1406C16.9947 59.1406 17.4031 59.0494 17.7685 58.8751L20.9692 57.3521C21.3683 57.1619 21.7024 56.8799 21.9365 56.5357C22.1706 56.1916 22.296 55.7979 22.2997 55.3959C24.3593 55.0035 27.2033 54.74 35.3261 57.5213C37.2046 58.1617 39.2012 58.4859 41.2136 58.4772C49.8415 58.4772 58.6909 52.9266 66.071 48.2974C67.926 47.1337 69.6782 46.0347 71.3166 45.0911C74.3789 43.3274 74.4877 40.6147 73.2923 38.841ZM61.4555 16.2574V39.9271C61.1247 40.0931 60.7909 40.2604 60.4541 40.429C58.4335 41.442 56.3701 42.4763 54.5409 43.3743V17.7271C54.9032 17.2471 55.253 16.7572 55.5902 16.2574H61.4555ZM36.5487 30.4592C37.3547 30.174 38.1448 29.8696 38.919 29.546V39.828C37.9634 39.5927 37.0216 39.3783 36.1056 39.1861V30.6132C36.2528 30.5627 36.4005 30.5113 36.5487 30.4592ZM40.8835 28.6673C43.3516 27.4961 45.6699 26.0918 47.798 24.4787V42.5765C45.5417 41.7171 43.2333 40.9695 40.8836 40.3371L40.8835 28.6673ZM49.7623 22.8743C50.7583 21.9982 51.6975 21.0728 52.5756 20.1025V44.3283C52.4405 44.3931 52.3079 44.4563 52.1778 44.518C51.4146 44.1239 50.6062 43.7437 49.7623 43.3783V22.8743ZM35.9511 28.2439C39.9952 26.1897 43.4937 23.8231 46.3488 21.2113C49.942 17.9252 52.5216 14.2405 54.0159 10.2595C54.0932 10.0535 54.0811 9.82943 53.982 9.63099C53.8829 9.43256 53.7038 9.27407 53.48 9.18656L51.774 8.51976L57.0946 5.28585L58.8395 11.0384L57.5248 10.6641C57.2918 10.5978 57.0393 10.611 56.8168 10.7012C56.5942 10.7913 56.4175 10.952 56.3214 11.1516C52.3155 19.4763 45.4411 25.4195 35.8892 28.8159C34.7034 29.2376 33.5471 29.5917 32.4437 29.889C33.5686 29.403 34.7464 28.8561 35.9511 28.2439ZM27.2267 32.764C29.573 32.4178 31.8849 31.9084 34.1411 31.2403V38.7997C33.0957 38.6085 32.1007 38.45 31.1804 38.3275C30.0499 38.1771 28.6869 38.2294 27.2263 38.4101L27.2267 32.764ZM11.9126 58.1221C11.7615 58.1934 11.5959 58.2374 11.4255 58.2517C11.2551 58.266 11.0831 58.2502 10.9196 58.2053C10.756 58.1604 10.6041 58.0873 10.4726 57.9901C10.341 57.8929 10.2324 57.7736 10.153 57.6391L5.11555 49.3909C4.95439 49.1211 4.92044 48.8055 5.02116 48.5135C5.12189 48.2214 5.34906 47.9768 5.65284 47.8331L7.6806 46.8772L13.8888 57.1907L11.9126 58.1221ZM20.3116 55.5223C20.2906 55.5847 20.2558 55.6429 20.2092 55.6933C20.1626 55.7437 20.1053 55.7855 20.0404 55.8161L16.8397 57.339C16.7092 57.401 16.5564 57.4147 16.4146 57.3769C16.2729 57.3391 16.1538 57.2531 16.0834 57.1376L8.93604 45.2642C8.86598 45.1481 8.85072 45.0121 8.89361 44.886C8.93649 44.76 9.03402 44.6542 9.16476 44.5919L12.3656 43.069C12.496 43.007 12.6489 42.9934 12.7906 43.0311C12.9323 43.0689 13.0514 43.1549 13.1218 43.2705L20.2691 55.144C20.3041 55.2014 20.3258 55.2644 20.3331 55.3294C20.3404 55.3943 20.3331 55.4599 20.3116 55.5223ZM70.2466 43.6293C68.5757 44.5915 66.8088 45.7004 64.9367 46.8741C56.2446 52.3271 45.4262 59.1121 36.0332 55.8952C27.0484 52.8186 23.9893 53.2734 21.6496 53.738L15.3679 43.3025C18.2519 42.2843 26.6814 39.4916 30.8895 40.0515C35.7674 40.7006 45.2302 42.8624 51.4758 46.1732C51.4197 46.5522 50.8738 47.4992 49.9427 48.0506C47.5951 49.4401 39.4748 47.9525 34.9084 46.6885C34.6605 46.622 34.3931 46.6451 34.1642 46.7527C33.9354 46.8602 33.7638 47.0436 33.6866 47.2629C33.6094 47.4822 33.6329 47.7197 33.7521 47.9237C33.8712 48.1277 34.0764 48.2817 34.3228 48.3521C35.2756 48.6161 41.7122 50.347 46.6169 50.347C48.4064 50.347 49.9922 50.1165 51.0331 49.5004C52.4113 48.6843 53.4697 47.1708 53.4426 46.0545C53.4414 46.0018 53.4355 45.9511 53.4296 45.9004C55.6796 44.8243 58.5917 43.3647 61.42 41.9468C63.6903 40.8086 65.8351 39.7334 67.6099 38.8689C69.3847 38.0044 70.8959 38.6822 71.6062 39.7358C72.3583 40.8508 72.2291 42.4874 70.2466 43.6293ZM16.5635 24.4615C18.9411 24.4615 21.2652 23.836 23.242 22.6641C25.2188 21.4921 26.7596 19.8264 27.6694 17.8776C28.5792 15.9288 28.8173 13.7843 28.3535 11.7155C27.8896 9.64658 26.7448 7.7462 25.0636 6.25463C23.3825 4.76306 21.2405 3.74728 18.9087 3.33576C16.5769 2.92423 14.1599 3.13544 11.9633 3.94268C9.7668 4.74991 7.88939 6.11691 6.56852 7.87082C5.24764 9.62472 4.54263 11.6868 4.54263 13.7962C4.54627 16.6238 5.81392 19.3347 8.06749 21.3341C10.3211 23.3336 13.3765 24.4583 16.5635 24.4615ZM16.5635 4.87377C18.5525 4.87377 20.4968 5.39706 22.1506 6.37746C23.8044 7.35787 25.0933 8.75135 25.8545 10.3817C26.6156 12.0121 26.8148 13.8061 26.4267 15.5368C26.0387 17.2676 25.0809 18.8574 23.6745 20.1052C22.2681 21.3531 20.4762 22.2028 18.5255 22.5471C16.5747 22.8914 14.5527 22.7147 12.7151 22.0394C10.8775 21.364 9.30694 20.2204 8.20192 18.7532C7.09691 17.2859 6.50711 15.5608 6.50711 13.7962C6.51015 11.4306 7.57064 9.16275 9.45593 7.49006C11.3412 5.81737 13.8973 4.87647 16.5635 4.87377ZM18.5878 15.8144C18.4308 15.0417 17.496 14.4961 16.0233 14.3172C14.497 14.1318 13.3734 13.3863 12.9403 12.2719C12.7494 11.7711 12.7172 11.2333 12.8474 10.7174C12.9775 10.2014 13.265 9.72711 13.6784 9.34629C14.2013 8.88149 14.8607 8.55621 15.5816 8.40747V7.3185C15.5816 7.08737 15.6851 6.86571 15.8693 6.70228C16.0535 6.53884 16.3033 6.44703 16.5638 6.44703C16.8243 6.44703 17.0742 6.53884 17.2584 6.70228C17.4426 6.86571 17.5461 7.08737 17.5461 7.3185V8.38394C18.5009 8.56755 19.3554 9.03698 19.9663 9.71343C20.0481 9.80223 20.1093 9.90448 20.1464 10.0143C20.1836 10.1241 20.1959 10.2394 20.1828 10.3535C20.1696 10.4675 20.1312 10.5782 20.0698 10.6791C20.0083 10.78 19.9251 10.8691 19.8247 10.9414C19.7244 11.0136 19.609 11.0676 19.4851 11.1003C19.3611 11.1329 19.2312 11.1435 19.1027 11.1315C18.9741 11.1194 18.8495 11.085 18.736 11.0302C18.6225 10.9754 18.5223 10.9012 18.4412 10.812C18.2346 10.5821 17.9748 10.3942 17.6793 10.261C17.3838 10.1278 17.0595 10.0525 16.7284 10.0401C16.4294 10.0225 16.1295 10.0595 15.8473 10.1489C15.565 10.2383 15.3065 10.3781 15.0877 10.5598C14.9258 10.7084 14.8132 10.8936 14.7619 11.0952C14.7107 11.2968 14.7229 11.507 14.7972 11.7029C14.9827 12.1802 15.5128 12.4952 16.2895 12.5894C18.6257 12.8733 20.2075 13.9629 20.5208 15.5042C20.6465 16.1565 20.5356 16.8273 20.2042 17.42C19.8727 18.0128 19.3378 18.4969 18.6765 18.8028C18.3197 18.972 17.9396 19.0993 17.5458 19.1814V20.2718C17.5458 20.5029 17.4423 20.7246 17.2581 20.888C17.0739 21.0515 16.824 21.1433 16.5635 21.1433C16.303 21.1433 16.0532 21.0515 15.869 20.888C15.6848 20.7246 15.5813 20.5029 15.5813 20.2718V19.2249C15.2588 19.1721 14.9436 19.0887 14.6412 18.9759C13.6102 18.59 12.8626 17.8827 12.59 17.0368C12.554 16.9266 12.543 16.8113 12.5574 16.6973C12.5718 16.5833 12.6115 16.473 12.6741 16.3727C12.7367 16.2723 12.8209 16.1839 12.9221 16.1125C13.0233 16.0412 13.1393 15.9882 13.2636 15.9567C13.3879 15.9252 13.518 15.9157 13.6464 15.9289C13.7748 15.9421 13.899 15.9776 14.0119 16.0335C14.1248 16.0893 14.2241 16.1644 14.3042 16.2544C14.3844 16.3443 14.4437 16.4475 14.4788 16.5579C14.6273 17.0185 15.1232 17.2645 15.4056 17.3704C15.7806 17.5059 16.1844 17.5669 16.5887 17.5493C16.9931 17.5317 17.3882 17.4358 17.7464 17.2685C18.04 17.1341 18.2789 16.9218 18.4298 16.661C18.5806 16.4003 18.6359 16.1043 18.5878 15.8144Z" fill="black"/>
</g>
<defs>
<filter id="filter0_d_164_703" x="0" y="0" width="81" height="67" filterUnits="userSpaceOnUse" color-interpolation-filters="sRGB">
<feFlood flood-opacity="0" result="BackgroundImageFix"/>
<feColorMatrix in="SourceAlpha" type="matrix" values="0 0 0 0 0 0 0 0 0 0 0 0 0 0 0 0 0 0 127 0" result="hardAlpha"/>
<feOffset dx="2" dy="2"/>
<feGaussianBlur stdDeviation="2.5"/>
<feComposite in2="hardAlpha" operator="out"/>
<feColorMatrix type="matrix" values="0 0 0 0 0 0 0 0 0 0 0 0 0 0 0 0 0 0 0.25 0"/>
<feBlend mode="normal" in2="BackgroundImageFix" result="effect1_dropShadow_164_703"/>
<feBlend mode="normal" in="SourceGraphic" in2="effect1_dropShadow_164_703" result="shape"/>
</filter>
</defs>
</svg>
