<svg width="85" height="59" viewBox="0 0 85 59" fill="none" xmlns="http://www.w3.org/2000/svg">
<g filter="url(#filter0_d_164_693)">
<path d="M75 33.2155L65.5254 37.3719C64.6096 37.7899 63.5352 37.3731 63.1246 36.4408L54.7518 17.4303C54.3412 16.498 54.7506 15.4043 55.6665 14.9863L75 6.50623V33.2155Z" fill="#C3C3C3"/>
<path opacity="0.1" d="M74.9955 6.50159V33.2166L65.5289 37.3731C64.605 37.7911 63.5329 37.3731 63.1223 36.4443L62.6547 35.3761C62.7003 35.3645 62.7459 35.3529 62.7915 35.3297L66.3466 33.7704C69.9417 32.1938 72.2695 28.5923 72.2695 24.6077V7.69744L74.9955 6.50159Z" fill="black"/>
<path d="M2.00456 32.9868L11.4791 37.3708C12.395 37.7887 13.4694 37.3719 13.88 36.4396L22.2528 17.4291C22.6634 16.4968 22.254 15.4031 21.3381 14.9852L2.00456 5.75854V32.9868Z" fill="#C3C3C3"/>
<path opacity="0.1" d="M14.2267 35.6548L13.8732 36.4443C13.4626 37.3731 12.3904 37.7911 11.478 37.3731L2 32.9844V5.75854L4.85138 7.11694V24.8236C4.85138 28.7816 7.12565 32.3749 10.6671 34.0096L14.2267 35.6548Z" fill="black"/>
<path d="M24.77 38.1881L21.2252 42.6174C20.461 43.5718 19.09 43.7146 18.1525 42.9367C17.686 42.5501 17.4134 42.0021 17.3564 41.439C17.3028 40.8724 17.4545 40.2884 17.8389 39.8089L21.3837 35.3796C22.1444 34.4287 23.5188 34.2824 24.4563 35.0603C24.9228 35.4469 25.1954 35.9949 25.2525 36.558C25.3049 37.1246 25.1498 37.7121 24.77 38.1881Z" fill="white"/>
<path d="M28.1563 40.9955L23.9226 46.2863C23.1584 47.2406 21.7874 47.3834 20.8499 46.6055C20.3834 46.2189 20.1108 45.6709 20.0538 45.1078C20.0002 44.5412 20.1519 43.9573 20.5363 43.4778L24.77 38.187C25.5307 37.2361 26.9051 37.0898 27.8426 37.8677C28.3091 38.2543 28.5817 38.8023 28.6387 39.3654C28.6912 39.932 28.5361 40.5206 28.1563 40.9955Z" fill="white"/>
<path d="M31.5426 43.804L27.9978 48.2333C27.2336 49.1877 25.8627 49.3305 24.9251 48.5526C24.4586 48.166 24.1861 47.618 24.129 47.0549C24.0754 46.4883 24.2271 45.9043 24.6115 45.4248L28.1563 40.9955C28.9171 40.0446 30.2914 39.8984 31.229 40.6762C31.6955 41.0629 31.9681 41.6109 32.0251 42.174C32.0775 42.7405 31.9224 43.328 31.5426 43.804Z" fill="white"/>
<path d="M34.9289 46.6114L32.138 50.0991C31.3738 51.0535 30.0029 51.1963 29.0653 50.4184C28.5988 50.0318 28.3263 49.4838 28.2692 48.9207C28.2156 48.3541 28.3673 47.7701 28.7517 47.2906L31.5426 43.8029C32.3034 42.852 33.6777 42.7057 34.6153 43.4836C35.0818 43.8702 35.3543 44.4182 35.4114 44.9813C35.4638 45.5479 35.3087 46.1365 34.9289 46.6114ZM63.1337 36.4676L60.6131 37.8027L53.3021 41.6806L52.6634 40.7401L49.0022 35.2949L48.9908 35.2833L43.5161 27.1446C42.9345 26.2738 41.7483 26.0881 40.9271 26.7266L37.1519 29.6408C35.1445 31.1849 32.4984 31.6029 30.126 30.7437L29.533 30.5232C28.4722 30.1516 28.1301 28.8048 28.86 27.9457L36.0341 19.5631L36.958 18.4834C38.8741 16.2426 42.0676 15.6505 44.6453 17.0669L47.1887 18.4718C48.66 19.2729 50.3823 19.4586 51.9791 18.9594L52.2642 18.8781L55.0129 18.0306L63.1223 36.4444C63.1337 36.4444 63.1337 36.456 63.1337 36.4676Z" fill="white"/>
<path d="M53.0626 42.6093C52.9485 43.2362 52.595 43.8167 52.0361 44.2115C50.9412 44.9777 49.4584 44.7223 48.6829 43.631L49.333 44.5946C49.7094 45.1635 49.8348 45.8369 49.7208 46.4638C49.6067 47.0792 49.2531 47.6713 48.6943 48.0544C47.5879 48.8439 46.0596 48.5537 45.2954 47.4159L44.5997 46.3942C44.9875 46.9631 45.1015 47.6249 44.9989 48.2518C44.8848 48.8788 44.5312 49.4709 43.9724 49.854C42.8546 50.6435 41.3377 50.3533 40.5735 49.2155L39.8094 48.0893C40.1971 48.6582 40.3226 49.3316 40.2085 49.9585C40.0945 50.5855 39.7409 51.166 39.182 51.5607C38.0643 52.3386 36.5474 52.06 35.7832 50.9106L35.4981 50.4926L33.81 48.008L34.9278 46.6148C35.3042 46.1388 35.4638 45.5466 35.4068 44.9777C35.3498 44.4205 35.0761 43.8632 34.6198 43.48L32.4984 43.1201C32.1334 43.2478 31.8027 43.48 31.5403 43.8051C31.9167 43.3291 32.0764 42.737 32.0194 42.1797C31.9737 41.6108 31.6886 41.0651 31.2324 40.6704C30.2857 39.8925 28.9171 40.0434 28.1529 40.9954C28.5407 40.5194 28.689 39.9389 28.6319 39.37C28.5749 38.8011 28.3126 38.2554 27.8449 37.8723C26.9097 37.0944 25.5296 37.2337 24.7769 38.1858C25.1532 37.7098 25.3015 37.1176 25.2559 36.5604C25.1989 35.9915 24.9251 35.4458 24.4575 35.0626C23.5222 34.2848 22.1422 34.4357 21.378 35.3761L18.3099 39.2191L16.1999 38.1742L15.6752 37.9187L13.5994 36.8854C13.7135 36.7577 13.8047 36.6068 13.8732 36.4442L21.1271 19.981C21.9711 20.3177 22.8265 20.7124 23.8416 20.9214C24.4689 21.0607 25.1646 21.1304 25.9402 21.0724C26.7044 21.0143 27.4229 20.724 28.0845 20.3525C31.3578 18.5065 35.7718 19.4934 36.0341 19.563C36.0455 19.563 36.0455 19.563 36.0455 19.563L28.86 27.9456C28.1301 28.8047 28.4722 30.1515 29.533 30.5231L30.1261 30.7436C32.3958 31.568 40.6306 25.7629 42.6037 24.3813L49.0022 35.2948L49.1049 35.469L52.6634 40.74C53.0512 41.3205 53.1766 41.9823 53.0626 42.6093Z" fill="white"/>
<path opacity="0.1" d="M38.2468 44.6875C38.3723 46.0691 37.9845 47.3927 37.1405 48.4492L35.4981 50.4926L33.8101 48.008L34.9278 46.6148C35.3042 46.1388 35.4639 45.5467 35.4068 44.9778C35.3498 44.4205 35.0761 43.8632 34.6199 43.4801L32.4984 43.1201C32.1335 43.2479 31.8027 43.4801 31.5404 43.8051C31.9167 43.3291 32.0764 42.737 32.0194 42.1797C31.9738 41.6108 31.6886 41.0651 31.2324 40.6704C30.2858 39.8925 28.9171 40.0434 28.1529 40.9955C28.5407 40.5195 28.689 39.939 28.632 39.3701C28.5749 38.8012 28.3126 38.2555 27.845 37.8723C26.9097 37.0945 25.5296 37.2338 24.7769 38.1858C25.1533 37.7098 25.3015 37.1177 25.2559 36.5604C25.1989 35.9915 24.9252 35.4458 24.4575 35.0627C23.5223 34.2848 22.1422 34.4357 21.378 35.3761L18.3099 39.2191L16.1999 38.1742L15.6753 37.9188L19.1768 33.5417C20.1348 32.3459 21.5605 31.6609 23.0775 31.6609C24.2294 31.6609 25.3586 32.0672 26.2596 32.8103C26.8413 33.2979 27.3203 33.9133 27.6283 34.6099C28.3582 34.784 29.054 35.1323 29.647 35.62C30.2401 36.1192 30.7078 36.7345 31.0157 37.4195C31.7457 37.5937 32.4414 37.942 33.0345 38.4296C33.6162 38.9173 34.0838 39.5326 34.4032 40.2292C35.1331 40.4034 35.8288 40.7401 36.4105 41.2277C37.4484 42.0868 38.11 43.3407 38.2468 44.6875ZM63.1337 36.4675L60.6131 37.8027C60.5789 37.7446 60.5446 37.6866 60.5218 37.6285L52.2642 18.8781L55.013 18.0305L63.1223 36.4443C63.1337 36.4443 63.1337 36.4559 63.1337 36.4675Z" fill="black"/>
<path opacity="0.1" d="M23.8416 20.9215L16.485 37.6285C16.4052 37.8143 16.3025 38.0001 16.1999 38.1742L13.5994 36.8855C13.7135 36.7578 13.8047 36.6068 13.8732 36.4443L21.1271 19.981C21.9711 20.3177 22.8265 20.7125 23.8416 20.9215Z" fill="black"/>
<path d="M63.1337 36.4617L53.3021 41.6805L43.5218 27.1491C42.9367 26.2795 41.7551 26.0845 40.9294 26.7219L37.1507 29.6407C35.1433 31.1906 32.5052 31.6063 30.1317 30.746L29.5318 30.5289C28.4768 30.1469 28.1312 28.8024 28.8669 27.9433L36.9591 18.4891C38.8809 16.2448 42.0733 15.655 44.6476 17.0692L47.1956 18.4694C48.6623 19.2751 50.3834 19.4527 51.979 18.9616L55.0209 18.0247L63.1257 36.4396C63.1291 36.4454 63.1291 36.4559 63.1337 36.4617Z" stroke="black" stroke-width="1.75" stroke-miterlimit="10" stroke-linecap="round" stroke-linejoin="round"/>
<path d="M32.503 43.1167C32.1391 43.2456 31.8061 43.4766 31.5415 43.8052C31.9213 43.3268 32.0798 42.7405 32.0216 42.1763C31.9692 41.612 31.6943 41.064 31.2301 40.6762C30.2903 39.8972 28.9171 40.0469 28.1574 40.9932C28.5373 40.5206 28.6912 39.9343 28.6376 39.3643C28.5795 38.8058 28.3103 38.2567 27.8404 37.87C26.9063 37.091 25.533 37.2361 24.7723 38.187C25.1521 37.7145 25.3061 37.1223 25.2525 36.5581C25.1943 35.9938 24.9251 35.4458 24.4552 35.058C23.5211 34.2836 22.1422 34.4288 21.3826 35.3808L18.3145 39.2191L13.5994 36.8867C13.7101 36.7578 13.8059 36.6069 13.8789 36.4408L21.1294 19.9764C22.4969 20.5244 23.9226 21.2071 25.9402 21.0678C26.701 21.0086 27.4241 20.7287 28.089 20.3526C31.4582 18.4497 36.041 19.5573 36.041 19.5573L28.8646 27.9422C28.1312 28.8025 28.4734 30.1458 29.5295 30.5278L30.1317 30.7483C32.3912 31.5657 34.8947 31.2267 36.8644 29.8509" stroke="black" stroke-width="1.75" stroke-miterlimit="10" stroke-linecap="round" stroke-linejoin="round"/>
<path d="M24.77 38.1881L21.2252 42.6174C20.461 43.5718 19.09 43.7146 18.1525 42.9367C17.686 42.5501 17.4134 42.0021 17.3564 41.439C17.3028 40.8724 17.4545 40.2884 17.8389 39.8089L21.3837 35.3796C22.1444 34.4287 23.5188 34.2824 24.4563 35.0603C24.9228 35.4469 25.1954 35.9949 25.2525 36.558C25.3049 37.1246 25.1498 37.7121 24.77 38.1881Z" stroke="black" stroke-width="1.75" stroke-miterlimit="10" stroke-linecap="round" stroke-linejoin="round"/>
<path d="M28.1563 40.9955L23.9226 46.2863C23.1584 47.2406 21.7874 47.3834 20.8499 46.6055C20.3834 46.2189 20.1108 45.6709 20.0538 45.1078C20.0002 44.5412 20.1519 43.9573 20.5363 43.4778L24.77 38.187C25.5307 37.2361 26.9051 37.0898 27.8426 37.8677C28.3091 38.2543 28.5817 38.8023 28.6387 39.3654C28.6912 39.932 28.5361 40.5206 28.1563 40.9955Z" stroke="black" stroke-width="1.75" stroke-miterlimit="10" stroke-linecap="round" stroke-linejoin="round"/>
<path d="M31.5426 43.804L27.9978 48.2333C27.2336 49.1877 25.8627 49.3305 24.9251 48.5526C24.4586 48.166 24.1861 47.618 24.129 47.0549C24.0754 46.4883 24.2271 45.9043 24.6115 45.4248L28.1563 40.9955C28.9171 40.0446 30.2914 39.8984 31.229 40.6762C31.6955 41.0629 31.9681 41.6109 32.0251 42.174C32.0775 42.7405 31.9224 43.328 31.5426 43.804Z" stroke="black" stroke-width="1.75" stroke-miterlimit="10" stroke-linecap="round" stroke-linejoin="round"/>
<path d="M45.073 38.2938L48.6372 43.5683C49.4048 44.7049 50.924 44.9905 52.0406 44.2092C52.5961 43.8202 52.9497 43.2339 53.0626 42.6105C53.1721 41.9823 53.0557 41.3159 52.6702 40.7447L49.106 35.4702M34.9289 46.6113L32.138 50.099C31.3738 51.0534 30.0029 51.1962 29.0653 50.4183C28.5988 50.0317 28.3263 49.4837 28.2692 48.9206C28.2156 48.354 28.3673 47.77 28.7517 47.2905L31.5426 43.8028C32.3034 42.8519 33.6777 42.7057 34.6153 43.4835C35.0818 43.8702 35.3543 44.4182 35.4114 44.9813C35.4638 45.5478 35.3087 46.1365 34.9289 46.6113Z" stroke="black" stroke-width="1.75" stroke-miterlimit="10" stroke-linecap="round" stroke-linejoin="round"/>
<path d="M41.04 41.1162L45.2977 47.4171C46.0653 48.5537 47.5845 48.8393 48.7011 48.058C49.2566 47.669 49.6101 47.0827 49.723 46.4592C49.8325 45.8311 49.7162 45.1647 49.3307 44.5935L45.073 38.2926" stroke="black" stroke-width="1.75" stroke-miterlimit="10" stroke-linecap="round" stroke-linejoin="round"/>
<path d="M37.007 43.9398L40.5713 49.2143C41.3389 50.351 42.8581 50.6366 43.9747 49.8552C44.5301 49.4663 44.8837 48.88 44.9966 48.2565C45.1061 47.6284 44.9898 46.962 44.6043 46.3908L41.04 41.1162" stroke="black" stroke-width="1.75" stroke-miterlimit="10" stroke-linecap="round" stroke-linejoin="round"/>
<path d="M37.007 43.9387L39.8105 48.0939C40.2017 48.664 40.3169 49.3304 40.2063 49.9586C40.0899 50.582 39.7421 51.1683 39.1821 51.5608C38.0677 52.3398 36.5474 52.0553 35.7821 50.9152L33.8123 48.0069L34.9266 46.609C35.3064 46.1365 35.465 45.5444 35.4125 44.9801C35.3544 44.4158 35.0795 43.8678 34.6153 43.4801M75 33.2155L65.5254 37.3719C64.6096 37.7899 63.5352 37.3731 63.1246 36.4408L54.7518 17.4303C54.3412 16.498 54.7506 15.4043 55.6665 14.9863L75 6.50624V33.2155ZM2.00456 32.9868L11.4791 37.3708C12.395 37.7887 13.4694 37.3719 13.88 36.4396L22.2528 17.4291C22.6634 16.4968 22.254 15.4031 21.3381 14.9852L2.00456 5.75854V32.9868Z" stroke="black" stroke-width="1.75" stroke-miterlimit="10" stroke-linecap="round" stroke-linejoin="round"/>
<path d="M65.8972 31.2406L66.6443 32.9868" stroke="white" stroke-width="1.75" stroke-miterlimit="10" stroke-linecap="round" stroke-linejoin="round"/>
<path d="M10.2759 32.9868L11.0229 31.2406" stroke="white" stroke-width="1.75" stroke-miterlimit="10" stroke-linecap="round" stroke-linejoin="round"/>
</g>
<defs>
<filter id="filter0_d_164_693" x="0.129562" y="0.883545" width="84.7454" height="57.9912" filterUnits="userSpaceOnUse" color-interpolation-filters="sRGB">
<feFlood flood-opacity="0" result="BackgroundImageFix"/>
<feColorMatrix in="SourceAlpha" type="matrix" values="0 0 0 0 0 0 0 0 0 0 0 0 0 0 0 0 0 0 127 0" result="hardAlpha"/>
<feOffset dx="4" dy="1"/>
<feGaussianBlur stdDeviation="2.5"/>
<feComposite in2="hardAlpha" operator="out"/>
<feColorMatrix type="matrix" values="0 0 0 0 0 0 0 0 0 0 0 0 0 0 0 0 0 0 0.25 0"/>
<feBlend mode="normal" in2="BackgroundImageFix" result="effect1_dropShadow_164_693"/>
<feBlend mode="normal" in="SourceGraphic" in2="effect1_dropShadow_164_693" result="shape"/>
</filter>
</defs>
</svg>
