<svg width="160" height="161" viewBox="0 0 160 161" fill="none" xmlns="http://www.w3.org/2000/svg">
<path d="M159 80.5798C159 124.21 123.631 159.58 80 159.58C36.3695 159.58 1 124.21 1 80.5798C1 36.9493 36.3695 1.57977 80 1.57977C123.631 1.57977 159 36.9493 159 80.5798Z" fill="#1E1E1E" stroke="#FFC323" stroke-width="2"/>
<g clip-path="url(#clip0_58_1998)">
<path d="M147.073 78.1278C147.073 112.52 118.602 140.4 83.4814 140.4C48.3609 140.4 19.8901 112.52 19.8901 78.1278C19.8901 43.7357 48.3609 15.8554 83.4814 15.8554C118.602 15.8554 147.073 43.7357 147.073 78.1278Z" fill="#1E1E1E"/>
<path d="M136.922 90.767L147.48 90.0861L147.065 92.0259L139.365 92.2552L139.345 92.3476L146.252 95.8277L145.875 97.5925L138.143 97.9472L138.124 98.0347L145.062 101.394L144.647 103.334L135.291 98.395L135.672 96.6156L143.084 96.1162L143.101 96.0384L136.542 92.5464L136.922 90.767Z" fill="white"/>
<path d="M131.826 106.756C132.151 106.063 132.576 105.532 133.101 105.163C133.627 104.799 134.219 104.606 134.877 104.586C135.538 104.566 136.23 104.726 136.953 105.066C137.664 105.4 138.225 105.828 138.635 106.35C139.047 106.876 139.288 107.454 139.358 108.084C139.432 108.716 139.314 109.361 139.004 110.021C138.804 110.447 138.546 110.817 138.231 111.13C137.917 111.448 137.549 111.685 137.127 111.843C136.704 112.003 136.233 112.063 135.713 112.024C135.196 111.987 134.634 111.826 134.028 111.541L133.529 111.307L136.189 105.641L137.287 106.156L135.36 110.26C135.673 110.404 135.983 110.467 136.288 110.449C136.596 110.432 136.876 110.339 137.128 110.168C137.379 110 137.578 109.76 137.724 109.448C137.88 109.115 137.937 108.784 137.893 108.456C137.852 108.13 137.735 107.835 137.54 107.571C137.347 107.312 137.096 107.108 136.789 106.96L135.83 106.51C135.428 106.321 135.048 106.233 134.691 106.245C134.337 106.258 134.022 106.361 133.745 106.553C133.471 106.746 133.251 107.02 133.085 107.374C132.973 107.611 132.906 107.841 132.882 108.064C132.86 108.289 132.883 108.502 132.949 108.705C133.014 108.908 133.128 109.092 133.289 109.255L132.404 110.696C132.047 110.411 131.782 110.064 131.609 109.653C131.437 109.246 131.366 108.796 131.397 108.301C131.431 107.808 131.574 107.293 131.826 106.756Z" fill="white"/>
<path d="M123.225 119.831C123.726 119.255 124.281 118.871 124.893 118.678C125.502 118.487 126.126 118.474 126.765 118.639C127.404 118.808 128.015 119.146 128.598 119.652C129.183 120.161 129.602 120.723 129.854 121.337C130.108 121.953 130.182 122.576 130.076 123.203C129.97 123.836 129.672 124.433 129.183 124.996C128.776 125.464 128.33 125.803 127.844 126.013C127.359 126.228 126.866 126.307 126.367 126.25C125.87 126.196 125.4 126.003 124.959 125.672L126.087 124.374C126.411 124.563 126.751 124.639 127.108 124.602C127.465 124.57 127.786 124.39 128.071 124.062C128.312 123.785 128.449 123.476 128.482 123.135C128.517 122.797 128.447 122.448 128.271 122.089C128.094 121.733 127.811 121.386 127.423 121.049C127.03 120.707 126.643 120.471 126.26 120.341C125.88 120.212 125.523 120.186 125.19 120.261C124.857 120.34 124.568 120.521 124.322 120.804C124.149 121.004 124.031 121.216 123.969 121.438C123.907 121.666 123.902 121.897 123.954 122.13C124.005 122.364 124.117 122.591 124.29 122.811L123.162 124.11C122.782 123.723 122.525 123.288 122.39 122.807C122.258 122.327 122.259 121.832 122.392 121.32C122.528 120.81 122.806 120.313 123.225 119.831Z" fill="white"/>
<path d="M116.788 126.111C117.165 125.806 117.558 125.599 117.968 125.489C118.377 125.384 118.777 125.393 119.167 125.517C119.554 125.643 119.905 125.9 120.22 126.289C120.491 126.624 120.653 126.952 120.706 127.271C120.76 127.59 120.733 127.901 120.625 128.206C120.518 128.51 120.357 128.804 120.143 129.088C119.929 129.377 119.69 129.653 119.426 129.917C119.108 130.235 118.852 130.495 118.658 130.699C118.467 130.905 118.347 131.078 118.299 131.219C118.251 131.365 118.281 131.505 118.389 131.639L118.408 131.662C118.643 131.953 118.912 132.109 119.214 132.129C119.516 132.149 119.829 132.028 120.154 131.765C120.497 131.488 120.708 131.193 120.788 130.881C120.866 130.571 120.857 130.287 120.762 130.027L122.218 129.155C122.407 129.6 122.481 130.039 122.44 130.473C122.401 130.909 122.259 131.327 122.014 131.725C121.771 132.126 121.442 132.494 121.028 132.83C120.742 133.061 120.43 133.258 120.092 133.42C119.754 133.583 119.406 133.681 119.046 133.716C118.689 133.754 118.333 133.699 117.978 133.55C117.622 133.404 117.284 133.134 116.965 132.74L113.751 128.766L115.096 127.678L115.755 128.494L115.802 128.456C115.753 128.223 115.748 127.971 115.786 127.702C115.824 127.437 115.923 127.167 116.084 126.892C116.244 126.621 116.479 126.361 116.788 126.111ZM117.257 127.433C116.976 127.66 116.777 127.912 116.661 128.19C116.546 128.47 116.509 128.748 116.548 129.023C116.585 129.3 116.692 129.548 116.869 129.767L117.435 130.467C117.449 130.395 117.497 130.302 117.578 130.185C117.656 130.071 117.75 129.95 117.86 129.823C117.97 129.695 118.081 129.571 118.192 129.451C118.304 129.331 118.401 129.227 118.483 129.139C118.669 128.942 118.819 128.744 118.931 128.547C119.044 128.349 119.101 128.153 119.103 127.96C119.107 127.77 119.035 127.584 118.89 127.404C118.681 127.146 118.43 127.028 118.135 127.048C117.841 127.069 117.548 127.197 117.257 127.433Z" fill="white"/>
<path d="M111.333 135.605L109.15 131.699L110.721 130.821L114.447 137.487L112.945 138.326L112.312 137.193L112.234 137.237C112.289 137.696 112.211 138.129 111.998 138.537C111.782 138.946 111.426 139.289 110.928 139.567C110.468 139.824 110.012 139.95 109.561 139.944C109.107 139.94 108.681 139.804 108.285 139.535C107.885 139.269 107.538 138.869 107.243 138.335L104.871 134.09L106.442 133.212L108.679 137.214C108.928 137.659 109.238 137.943 109.61 138.066C109.98 138.189 110.367 138.138 110.772 137.912C111.047 137.758 111.257 137.561 111.403 137.32C111.548 137.083 111.618 136.818 111.614 136.524C111.606 136.232 111.513 135.926 111.333 135.605Z" fill="white"/>
<path d="M95.8431 142.135L94.7703 137.791L96.5176 137.359L98.9588 147.244L97.2502 147.666L96.3288 143.935L96.2419 143.957C96.1714 144.418 95.9842 144.814 95.6802 145.145C95.3738 145.48 94.9374 145.718 94.3711 145.858C93.8563 145.985 93.3808 145.988 92.9446 145.867C92.5085 145.746 92.1346 145.504 91.8229 145.14C91.508 144.778 91.2767 144.297 91.1289 143.698L89.9631 138.978L91.7103 138.547L92.8093 142.997C92.9325 143.495 93.157 143.851 93.4827 144.065C93.8061 144.282 94.1978 144.333 94.6579 144.22C94.9668 144.144 95.2269 144.008 95.438 143.812C95.6468 143.621 95.7893 143.382 95.8657 143.097C95.9389 142.813 95.9314 142.492 95.8431 142.135Z" fill="white"/>
<path d="M83.0718 139.598C83.8356 139.544 84.5063 139.656 85.0841 139.934C85.6589 140.216 86.1156 140.639 86.4544 141.203C86.7935 141.771 86.9911 142.453 87.0472 143.25C87.1024 144.033 87.0021 144.731 86.7462 145.344C86.4873 145.961 86.1 146.453 85.5844 146.822C85.0691 147.193 84.4477 147.405 83.7203 147.456C83.2508 147.489 82.8025 147.445 82.3752 147.322C81.9448 147.203 81.5582 146.997 81.2154 146.706C80.8692 146.415 80.5864 146.032 80.367 145.559C80.1479 145.09 80.0148 144.521 79.9677 143.853L79.9289 143.303L86.1727 142.863L86.2579 144.073L81.7351 144.392C81.7626 144.735 81.8585 145.036 82.0229 145.293C82.1875 145.554 82.4058 145.753 82.678 145.89C82.9468 146.027 83.2531 146.084 83.597 146.06C83.964 146.034 84.28 145.922 84.5452 145.724C84.8105 145.529 85.0108 145.282 85.1459 144.984C85.278 144.688 85.3336 144.371 85.3129 144.03L85.2385 142.973C85.2073 142.53 85.0995 142.156 84.9151 141.85C84.731 141.547 84.4875 141.322 84.1847 141.174C83.8821 141.029 83.5357 140.97 83.1456 140.998C82.8844 141.016 82.6506 141.069 82.4441 141.157C82.2379 141.248 82.0622 141.372 81.917 141.528C81.7719 141.684 81.6672 141.873 81.603 142.093L79.9135 142.023C79.9881 141.572 80.1625 141.171 80.4367 140.82C80.7079 140.472 81.0669 140.191 81.5136 139.976C81.9606 139.766 82.48 139.639 83.0718 139.598Z" fill="white"/>
<path d="M73.8978 149.886L74.4869 139.721L76.2836 139.825L75.6945 149.99L73.8978 149.886Z" fill="white"/>
<path d="M71.2956 136.593L69.3123 146.904L67.5743 146.57L67.8128 145.33L67.7102 145.31C67.5841 145.475 67.4182 145.644 67.2128 145.817C67.0068 145.993 66.7481 146.127 66.4367 146.219C66.1248 146.315 65.7491 146.32 65.3097 146.235C64.7304 146.124 64.2365 145.875 63.828 145.49C63.4157 145.107 63.1282 144.601 62.9656 143.972C62.7991 143.346 62.796 142.616 62.9563 141.783C63.1147 140.96 63.3844 140.286 63.7653 139.762C64.1463 139.238 64.5986 138.869 65.1222 138.656C65.6459 138.443 66.2022 138.393 66.7913 138.506C67.221 138.589 67.5636 138.729 67.8192 138.927C68.0748 139.124 68.2695 139.341 68.4032 139.576C68.533 139.813 68.6275 140.032 68.6869 140.233L68.7601 140.247L69.5282 136.253L71.2956 136.593ZM68.3003 142.821C68.3936 142.336 68.407 141.898 68.3404 141.508C68.2705 141.116 68.1251 140.793 67.9042 140.538C67.6794 140.285 67.3798 140.123 67.0055 140.051C66.615 139.976 66.2678 140.017 65.9641 140.175C65.6598 140.336 65.4059 140.585 65.2023 140.924C64.9949 141.266 64.8461 141.671 64.7559 142.14C64.6664 142.605 64.6536 143.031 64.7176 143.418C64.7815 143.805 64.9256 144.126 65.1498 144.382C65.374 144.638 65.683 144.804 66.0768 144.879C66.4544 144.952 66.794 144.914 67.0959 144.767C67.3977 144.619 67.6514 144.379 67.8569 144.047C68.0593 143.715 68.207 143.306 68.3003 142.821Z" fill="white"/>
<path d="M55.6114 132.065C55.8318 132.172 56.027 132.29 56.1971 132.417C56.3657 132.54 56.4942 132.651 56.5826 132.75L55.5917 133.826C55.3899 133.642 55.196 133.507 55.0099 133.42C54.8239 133.332 54.6332 133.311 54.4379 133.356C54.2412 133.396 54.0303 133.522 53.8054 133.733L53.4858 134.036L52.5503 142.256L50.8352 141.417L51.7866 135.463L51.7151 135.428L47.5969 139.834L45.8773 138.994L52.3837 132.645C52.6894 132.344 53.0112 132.116 53.3492 131.96C53.6887 131.802 54.0453 131.729 54.419 131.742C54.7911 131.75 55.1886 131.858 55.6114 132.065Z" fill="white"/>
<path d="M44.0027 128.415C44.6068 128.852 45.0341 129.364 45.2847 129.951C45.5353 130.537 45.6098 131.158 45.5082 131.812C45.4039 132.465 45.1204 133.111 44.6579 133.75C44.1953 134.389 43.6693 134.861 43.0798 135.167C42.4876 135.471 41.8738 135.595 41.2384 135.54C40.603 135.485 39.9833 135.239 39.3792 134.802C38.7751 134.365 38.3478 133.853 38.0972 133.266C37.8466 132.68 37.7744 132.059 37.8807 131.404C37.9843 130.746 38.2673 130.098 38.7299 129.459C39.1924 128.82 39.7188 128.35 40.3091 128.049C40.8967 127.746 41.5081 127.622 42.1435 127.677C42.7789 127.732 43.3987 127.978 44.0027 128.415ZM43.1493 129.577C42.8217 129.34 42.4828 129.232 42.1324 129.252C41.7801 129.275 41.4395 129.401 41.1105 129.629C40.7789 129.856 40.477 130.157 40.2049 130.533C39.9309 130.911 39.7381 131.294 39.6267 131.679C39.5105 132.066 39.4965 132.43 39.5845 132.772C39.6725 133.114 39.8803 133.403 40.2078 133.64C40.5434 133.883 40.8887 133.994 41.2437 133.973C41.596 133.95 41.9389 133.824 42.2725 133.595C42.6015 133.366 42.903 133.063 43.177 132.684C43.4491 132.308 43.6422 131.929 43.7564 131.545C43.8678 131.159 43.8796 130.795 43.7916 130.453C43.699 130.112 43.4849 129.82 43.1493 129.577Z" fill="white"/>
<path d="M32.9037 123.029L29.7273 126.109L28.4744 124.817L33.9563 119.501L35.1712 120.754L34.1969 121.699L34.2522 121.756C34.6791 121.582 35.1274 121.542 35.5971 121.636C36.0645 121.727 36.4978 121.979 36.897 122.39C37.2454 122.75 37.4737 123.145 37.582 123.575C37.6855 124.006 37.6588 124.447 37.5019 124.899C37.3425 125.354 37.044 125.794 36.6062 126.218L33.1157 129.603L31.8628 128.311L35.1534 125.12C35.5008 124.783 35.6845 124.42 35.7045 124.032C35.7245 123.643 35.5846 123.294 35.2846 122.984C35.1 122.794 34.8748 122.655 34.609 122.566C34.3431 122.478 34.0632 122.465 33.7692 122.529C33.4706 122.592 33.1821 122.759 32.9037 123.029Z" fill="white"/>
<path d="M22.0083 110.571L23.2981 109.842L25.553 113.833L24.2631 114.562L22.0083 110.571Z" fill="white"/>
<path d="M14.2819 78.7788C13.0247 48.1758 39.0412 22.2564 72.3914 20.8864C105.742 19.5163 133.796 43.2143 135.054 73.8174C136.311 104.42 110.294 130.34 76.9442 131.71C43.594 133.08 15.5391 109.382 14.2819 78.7788Z" fill="#1E1E1E"/>
<path d="M24.1556 67.6677L13.5748 68.9042L13.9363 66.9537L21.6613 66.3176L21.6785 66.2248L14.645 63.1311L14.9739 61.3566L22.7274 60.5942L22.7437 60.5062L15.6826 57.534L16.0441 55.5835L25.5774 59.998L25.2458 61.7871L17.8176 62.6764L17.8031 62.7546L24.4873 65.8786L24.1556 67.6677Z" fill="white"/>
<path d="M27.6372 52.6636C27.3226 53.3616 26.9028 53.9064 26.3778 54.298C25.8511 54.6854 25.2533 54.908 24.5845 54.966C23.9127 55.0228 23.2049 54.9055 22.4611 54.6141C21.7297 54.3276 21.1491 53.9401 20.7193 53.4518C20.2877 52.9592 20.0286 52.4062 19.9419 51.7927C19.8522 51.1781 19.9571 50.5384 20.2567 49.8736C20.4501 49.4445 20.7035 49.0674 21.0171 48.7422C21.3289 48.4129 21.6974 48.1591 22.1227 47.9808C22.5493 47.7995 23.0275 47.7132 23.5574 47.7217C24.0843 47.7289 24.6594 47.8547 25.2827 48.0989L25.7966 48.3002L23.225 54.0068L22.0955 53.5643L23.9583 49.4305C23.636 49.3078 23.3199 49.264 23.01 49.299C22.697 49.3328 22.4142 49.4407 22.1616 49.6226C21.9104 49.8015 21.7139 50.048 21.5723 50.3623C21.4212 50.6977 21.3717 51.025 21.424 51.3441C21.4732 51.662 21.6 51.9445 21.8045 52.1917C22.0072 52.4347 22.2669 52.62 22.5834 52.7475L23.5694 53.1338C23.9829 53.2958 24.3711 53.3608 24.7341 53.3288C25.094 53.2956 25.4126 53.1768 25.6898 52.9726C25.9639 52.7671 26.1813 52.4861 26.342 52.1295C26.4496 51.8908 26.513 51.6615 26.5323 51.4415C26.5484 51.2203 26.5206 51.0121 26.4488 50.8168C26.3771 50.6216 26.2572 50.4485 26.0893 50.2974L26.9556 48.8342C27.3255 49.0929 27.6035 49.4187 27.7896 49.8116C27.9739 50.2002 28.0563 50.6378 28.0368 51.1243C28.0141 51.6096 27.8809 52.1227 27.6372 52.6636Z" fill="white"/>
<path d="M35.5223 40.8072C35.0272 41.3869 34.4681 41.7844 33.8449 41.9996C33.2239 42.2124 32.5815 42.2542 31.9176 42.125C31.2532 41.9913 30.6119 41.6931 29.9936 41.2304C29.3727 40.7656 28.9216 40.2421 28.6403 39.6598C28.3564 39.0755 28.2583 38.4774 28.3459 37.8654C28.4331 37.249 28.7188 36.6572 29.2031 36.0901C29.6056 35.6188 30.0534 35.2702 30.5464 35.0443C31.039 34.8139 31.5437 34.7145 32.0605 34.746C32.5746 34.7755 33.0648 34.94 33.5311 35.2394L32.414 36.5474C32.0743 36.3799 31.7212 36.3222 31.3548 36.3744C30.9879 36.422 30.6635 36.6109 30.3815 36.9411C30.1426 37.2209 30.0123 37.5262 29.9907 37.857C29.9665 38.1859 30.051 38.5198 30.2444 38.8587C30.4399 39.1951 30.7434 39.5172 31.1546 39.825C31.5712 40.1368 31.979 40.347 32.3778 40.4554C32.774 40.5619 33.1424 40.5711 33.4829 40.4831C33.8229 40.3906 34.1146 40.2019 34.3578 39.9171C34.53 39.7154 34.6441 39.5055 34.7001 39.2871C34.7556 39.0642 34.7526 38.841 34.6913 38.6174C34.63 38.3939 34.5064 38.1795 34.3206 37.9744L35.4377 36.6663C35.8422 37.0228 36.1223 37.4307 36.278 37.8901C36.4311 38.3476 36.4479 38.827 36.3285 39.3284C36.2064 39.8279 35.9377 40.3208 35.5223 40.8072Z" fill="white"/>
<path d="M41.4354 35.1558C41.062 35.4637 40.6669 35.6781 40.2498 35.7991C39.8331 35.9156 39.421 35.921 39.0136 35.8154C38.6088 35.7076 38.2353 35.4712 37.893 35.1061C37.5983 34.7917 37.416 34.4812 37.346 34.1744C37.2761 33.8677 37.2894 33.5651 37.386 33.2668C37.4826 32.9685 37.6344 32.6782 37.8414 32.396C38.0487 32.1093 38.2819 31.8333 38.5411 31.5681C38.8546 31.2496 39.1062 30.9885 39.2961 30.7847C39.4836 30.5786 39.5988 30.4064 39.6416 30.2682C39.6846 30.1255 39.6472 29.9913 39.5293 29.8656L39.5089 29.8438C39.2528 29.5706 38.9688 29.4297 38.6569 29.4211C38.345 29.4124 38.028 29.541 37.7058 29.8067C37.3657 30.0872 37.1617 30.3798 37.0938 30.6845C37.0284 30.9871 37.0507 31.2624 37.1607 31.5104L35.7011 32.4054C35.486 31.9826 35.3896 31.5605 35.4117 31.1392C35.4316 30.7155 35.5583 30.3066 35.7919 29.9125C36.0231 29.5159 36.3446 29.1479 36.7563 28.8084C37.0401 28.5743 37.3521 28.3727 37.6923 28.2036C38.0325 28.0345 38.387 27.9265 38.7557 27.8797C39.1221 27.8305 39.4912 27.8712 39.8631 28.0018C40.2375 28.1303 40.5981 28.3796 40.945 28.7495L44.4405 32.478L43.1058 33.5788L42.3883 32.8135L42.3423 32.8515C42.403 33.0758 42.4201 33.3189 42.3936 33.5809C42.3674 33.8383 42.2778 34.103 42.1248 34.375C41.972 34.6425 41.7422 34.9027 41.4354 35.1558ZM40.8914 33.8937C41.1701 33.6638 41.363 33.4126 41.4701 33.1399C41.5749 32.8648 41.6007 32.5949 41.5474 32.3301C41.4967 32.0632 41.375 31.827 41.1823 31.6215L40.5669 30.965C40.5551 31.0347 40.5105 31.1273 40.4328 31.2428C40.3577 31.3562 40.2665 31.4764 40.159 31.6036C40.0516 31.7308 39.9432 31.8546 39.8337 31.9748C39.7243 32.0951 39.6292 32.1992 39.5485 32.2872C39.3663 32.4846 39.2218 32.681 39.1148 32.8765C39.0078 33.0719 38.958 33.263 38.9654 33.4498C38.9706 33.6342 39.0525 33.8111 39.2112 33.9803C39.4378 34.2221 39.7023 34.3277 40.0046 34.2971C40.3069 34.2665 40.6025 34.132 40.8914 33.8937Z" fill="white"/>
<path d="M46.0329 26.2874L48.4807 30.0329L46.922 30.9326L42.7444 24.5402L44.2342 23.6803L44.9441 24.7665L45.0216 24.7218C44.9398 24.276 44.9965 23.8516 45.1917 23.4486C45.3897 23.0439 45.7356 22.699 46.2294 22.414C46.6858 22.1506 47.145 22.0154 47.607 22.0086C48.0719 22.0001 48.5146 22.1209 48.9351 22.3711C49.3584 22.6197 49.7355 23 50.0662 23.5122L52.7262 27.5823L51.1675 28.482L48.6598 24.6449C48.3806 24.2177 48.0473 23.9496 47.6599 23.8408C47.2754 23.7303 46.8822 23.7911 46.4803 24.023C46.2076 24.1804 46.0032 24.3787 45.8669 24.6178C45.7317 24.8525 45.6745 25.1129 45.6954 25.3989C45.7191 25.6832 45.8316 25.9794 46.0329 26.2874Z" fill="white"/>
<path d="M60.543 19.9564L61.8599 24.2326L60.1247 24.71L57.1279 14.9792L58.8248 14.5124L59.9559 18.1852L60.0422 18.1614C60.0879 17.7022 60.2548 17.3041 60.5427 16.9672C60.8329 16.6262 61.2592 16.3784 61.8216 16.2236C62.3329 16.083 62.8114 16.0664 63.257 16.174C63.7027 16.2816 64.0923 16.5112 64.4258 16.8626C64.7626 17.2132 65.0217 17.6831 65.2031 18.2723L66.6342 22.9191L64.899 23.3965L63.5498 19.0158C63.3986 18.5248 63.1533 18.1783 62.8137 17.9762C62.4764 17.7701 62.0792 17.7299 61.6222 17.8556C61.3155 17.94 61.0611 18.0821 60.8592 18.282C60.6595 18.4778 60.529 18.7181 60.4677 19.003C60.4096 19.287 60.4347 19.6048 60.543 19.9564Z" fill="white"/>
<path d="M72.8931 22.2324C72.1318 22.3142 71.4559 22.2268 70.8655 21.9702C70.2779 21.71 69.8018 21.3044 69.4372 20.7536C69.0723 20.1995 68.8436 19.5257 68.751 18.7323C68.66 17.9521 68.7284 17.2514 68.9563 16.6303C69.187 16.0055 69.5518 15.4997 70.0506 15.1128C70.5489 14.7226 71.1606 14.4885 71.8856 14.4107C72.3536 14.3604 72.804 14.3887 73.2369 14.4955C73.6727 14.5987 74.0687 14.7895 74.4248 15.0679C74.7842 15.346 75.0844 15.7171 75.3254 16.1812C75.566 16.642 75.7251 17.2049 75.8027 17.8699L75.8666 18.4181L69.6432 19.0865L69.5026 17.8816L74.0108 17.3974C73.9676 17.0554 73.8579 16.7588 73.6818 16.5077C73.5053 16.2534 73.2779 16.0628 72.9995 15.936C72.7244 15.8089 72.4155 15.7637 72.0728 15.8006C71.707 15.8398 71.396 15.9632 71.14 16.1707C70.8835 16.375 70.6945 16.6286 70.573 16.9316C70.4545 17.231 70.4133 17.5504 70.4496 17.8899L70.5723 18.9417C70.6237 19.3828 70.7486 19.7528 70.947 20.0515C71.1449 20.3469 71.3987 20.5629 71.7083 20.6997C72.0175 20.8331 72.3665 20.879 72.7554 20.8372C73.0157 20.8093 73.2471 20.7477 73.4496 20.6527C73.6516 20.5543 73.8217 20.4244 73.9597 20.2629C74.0976 20.1014 74.1937 19.9094 74.2478 19.6869L75.9405 19.6951C75.8865 20.1476 75.7304 20.5543 75.4722 20.9154C75.2169 21.2728 74.8708 21.5667 74.4339 21.7969C73.9966 22.0239 73.483 22.1691 72.8931 22.2324Z" fill="white"/>
<path d="M81.1997 11.599L80.9889 21.7787L79.1894 21.7549L79.4002 11.5753L81.1997 11.599Z" fill="white"/>
<path d="M83.7784 24.6776L85.4657 14.314L87.219 14.5562L87.0161 15.8026L87.1195 15.8169C87.2412 15.6464 87.4026 15.4696 87.6036 15.2867C87.8051 15.1004 88.0607 14.9534 88.3703 14.8457C88.6805 14.7347 89.0571 14.7098 89.5004 14.771C90.0848 14.8517 90.5875 15.0734 91.0085 15.4359C91.4334 15.7956 91.7366 16.2841 91.9181 16.9012C92.1034 17.5155 92.1279 18.2414 91.9916 19.0788C91.8568 19.9065 91.6061 20.591 91.2393 21.1324C90.8725 21.6737 90.4296 22.0641 89.9106 22.3035C89.3915 22.5429 88.8349 22.6215 88.2406 22.5394C87.8072 22.4796 87.4595 22.3579 87.1972 22.1745C86.935 21.9911 86.7334 21.786 86.5925 21.5592C86.4553 21.3295 86.354 21.1165 86.2886 20.9201L86.2147 20.9099L85.5612 24.9238L83.7784 24.6776ZM86.6005 18.3241C86.5211 18.8115 86.5206 19.2479 86.5988 19.6334C86.6803 20.0193 86.8357 20.3334 87.0648 20.5758C87.2977 20.8153 87.6029 20.9612 87.9805 21.0133C88.3745 21.0678 88.7215 21.0087 89.0215 20.836C89.3221 20.6601 89.5695 20.3983 89.7638 20.0505C89.9618 19.6999 90.0992 19.289 90.1759 18.818C90.2521 18.3502 90.2524 17.9254 90.1769 17.5437C90.1014 17.162 89.9475 16.8497 89.7151 16.6069C89.4827 16.3641 89.1679 16.2152 88.7706 16.1603C88.3898 16.1077 88.0501 16.1628 87.7517 16.3257C87.4533 16.4885 87.2058 16.7403 87.0093 17.0811C86.8161 17.4223 86.6798 17.8367 86.6005 18.3241Z" fill="white"/>
<path d="M98.7329 27.8429C98.5059 27.7501 98.3042 27.6461 98.1279 27.531C97.9532 27.4202 97.8197 27.319 97.7274 27.2276L98.7107 26.1172C98.9206 26.2853 99.1213 26.4068 99.3129 26.4816C99.5045 26.5565 99.6992 26.5664 99.897 26.5115C100.096 26.4607 100.308 26.3256 100.532 26.1061L100.85 25.7911L101.606 17.6885L103.373 18.4116L102.547 24.2965L102.62 24.3267L106.709 19.7767L108.48 20.5017L102.006 27.0903C101.702 27.4022 101.38 27.644 101.039 27.8158C100.697 27.9906 100.336 28.0823 99.955 28.091C99.5758 28.1039 99.1684 28.0212 98.7329 27.8429Z" fill="white"/>
<path d="M110.122 30.2877C109.488 29.8948 109.034 29.4204 108.758 28.8645C108.483 28.3087 108.388 27.7107 108.473 27.0705C108.561 26.432 108.833 25.791 109.289 25.1475C109.745 24.504 110.272 24.0188 110.868 23.692C111.468 23.3669 112.095 23.2146 112.749 23.2351C113.404 23.2556 114.048 23.4623 114.682 23.8552C115.316 24.2482 115.77 24.7226 116.045 25.2784C116.32 25.8343 116.413 26.4328 116.323 27.0739C116.237 27.7169 115.965 28.3601 115.509 29.0036C115.053 29.6471 114.526 30.1301 113.928 30.4524C113.334 30.7765 112.709 30.9283 112.054 30.9079C111.4 30.8874 110.756 30.6807 110.122 30.2877ZM110.964 29.1168C111.308 29.3298 111.659 29.4174 112.019 29.3795C112.38 29.3388 112.726 29.1993 113.057 28.9609C113.391 28.7243 113.693 28.4167 113.961 28.0381C114.231 27.6569 114.418 27.2763 114.521 26.8965C114.629 26.5157 114.632 26.1618 114.532 25.8347C114.431 25.5076 114.209 25.2375 113.865 25.0245C113.513 24.8062 113.155 24.7165 112.791 24.7554C112.429 24.796 112.081 24.936 111.745 25.1754C111.414 25.4138 111.113 25.7236 110.843 26.1048C110.574 26.4834 110.387 26.8617 110.281 27.2398C110.178 27.6196 110.177 27.9731 110.278 28.3002C110.383 28.6263 110.612 28.8985 110.964 29.1168Z" fill="white"/>
<path d="M121.203 34.3968L124.352 31.2891L125.697 32.4855L120.261 37.8489L118.957 36.6888L119.923 35.7356L119.864 35.6827C119.431 35.8684 118.97 35.9256 118.482 35.8543C117.997 35.7852 117.54 35.56 117.111 35.1789C116.737 34.8462 116.486 34.474 116.357 34.0625C116.232 33.6508 116.242 33.2232 116.385 32.7797C116.531 32.3339 116.821 31.8968 117.255 31.4685L120.716 28.0536L122.061 29.25L118.798 32.4694C118.453 32.8092 118.279 33.1674 118.274 33.5438C118.269 33.9203 118.428 34.2517 118.749 34.5382C118.948 34.7144 119.185 34.8398 119.463 34.9143C119.741 34.9887 120.03 34.9892 120.331 34.9157C120.636 34.8421 120.927 34.6691 121.203 34.3968Z" fill="white"/>
<path d="M132.288 45.0302L131.008 45.7766L128.482 41.9516L129.762 41.2052L132.288 45.0302Z" fill="white"/>
</g>
<circle cx="80" cy="79" r="45.5" fill="#1E1E1E" stroke="white"/>
<defs>
<clipPath id="clip0_58_1998">
<rect width="145.877" height="149.894" fill="white" transform="translate(6.4666 5.12054)"/>
</clipPath>
</defs>
</svg>
