<svg width="74" height="72" viewBox="0 0 74 72" fill="none" xmlns="http://www.w3.org/2000/svg">
<g filter="url(#filter0_d_164_695)">
<path d="M56.6237 11.6201L46.2421 1.2993C46.0441 1.1092 45.7802 1.00204 45.505 1H10.2073C9.93192 1 9.66786 1.10874 9.47316 1.30229C9.27847 1.49584 9.16909 1.75836 9.16909 2.03208V12.3529H2.94008C2.66475 12.3529 2.40068 12.4616 2.20599 12.6552C2.01129 12.8487 1.90192 13.1113 1.90192 13.385V44.3474C1.90192 44.6212 2.01129 44.8837 2.20599 45.0772C2.40068 45.2708 2.66475 45.3795 2.94008 45.3795H9.16909V56.7324C9.16909 57.0061 9.27847 57.2687 9.47316 57.4622C9.66786 57.6558 9.93192 57.7645 10.2073 57.7645H38.2378V55.7003H11.2454V45.3795H38.2378C38.5131 45.3795 38.7772 45.2708 38.9719 45.0772C39.1666 44.8837 39.276 44.6212 39.276 44.3474V13.385C39.276 13.1113 39.1666 12.8487 38.9719 12.6552C38.7772 12.4616 38.5131 12.3529 38.2378 12.3529H11.2454V3.06416H44.4668V12.3529C44.4668 12.6266 44.5762 12.8891 44.7709 13.0827C44.9656 13.2762 45.2296 13.385 45.505 13.385H54.8485V23.7058H56.9248V12.3529C56.9228 12.0793 56.815 11.8169 56.6237 11.6201ZM37.1996 43.3153H3.97825V20.6096H37.1996V43.3153ZM37.1996 14.4171V18.5454H3.97825V14.4171H37.1996ZM46.5431 11.3208V4.5194L53.3847 11.3208H46.5431Z" fill="black"/>
</g>
<path d="M8.13101 15.4491H6.05467V17.5133H8.13101V15.4491Z" fill="black"/>
<path d="M12.2837 15.4491H10.2074V17.5133H12.2837V15.4491Z" fill="black"/>
<path d="M16.4364 15.4491H14.36V17.5133H16.4364V15.4491Z" fill="black"/>
<path d="M30.9707 38.1549V24.7379C30.9707 24.4641 30.8613 24.2016 30.6666 24.0081C30.4719 23.8145 30.2079 23.7058 29.9325 23.7058H25.7799C25.5045 23.7058 25.2405 23.8145 25.0458 24.0081C24.8511 24.2016 24.7417 24.4641 24.7417 24.7379V38.1549H23.7035V28.8662C23.7035 28.5925 23.5942 28.3299 23.3995 28.1364C23.2048 27.9428 22.9407 27.8341 22.6654 27.8341H18.5127C18.2374 27.8341 17.9733 27.9428 17.7786 28.1364C17.5839 28.3299 17.4745 28.5925 17.4745 28.8662V38.1549H16.4364V31.9624C16.4364 31.6887 16.327 31.4262 16.1323 31.2326C15.9376 31.0391 15.6735 30.9304 15.3982 30.9304H11.2455C10.9702 30.9304 10.7061 31.0391 10.5114 31.2326C10.3167 31.4262 10.2074 31.6887 10.2074 31.9624V38.1549H8.13103V40.2191H33.047V38.1549H30.9707ZM14.36 38.1549H12.2837V32.9945H14.36V38.1549ZM21.6272 38.1549H19.5509V29.8983H21.6272V38.1549ZM28.8944 38.1549H26.818V25.7699H28.8944V38.1549Z" fill="black"/>
<g filter="url(#filter1_d_164_695)">
<path d="M63.1539 56.7324H62.1157V53.6362C62.1157 53.3624 62.0064 53.0999 61.8117 52.9064C61.617 52.7128 61.3529 52.6041 61.0776 52.6041H59.9771L59.0635 38.1549H61.0776C61.3169 38.155 61.5489 38.0728 61.7343 37.9224C61.9197 37.7719 62.0471 37.5624 62.095 37.3293L64.1713 27.0085C64.2018 26.8586 64.198 26.7038 64.1603 26.5555C64.1225 26.4072 64.0518 26.2693 63.9533 26.1518C63.8582 26.0318 63.7367 25.935 63.5981 25.8688C63.4596 25.8026 63.3076 25.7688 63.1539 25.77H59.0012C58.7259 25.77 58.4618 25.8787 58.2671 26.0722C58.0724 26.2658 57.9631 26.5283 57.9631 26.802V28.8662H55.8867V26.802C55.8867 26.5283 55.7774 26.2658 55.5827 26.0722C55.388 25.8787 55.1239 25.77 54.8486 25.77H50.6959C50.4206 25.77 50.1565 25.8787 49.9618 26.0722C49.7671 26.2658 49.6577 26.5283 49.6577 26.802V28.8662H47.5814V26.802C47.5814 26.5283 47.472 26.2658 47.2773 26.0722C47.0826 25.8787 46.8186 25.77 46.5432 25.77H42.3906C42.2368 25.7688 42.0849 25.8026 41.9463 25.8688C41.8078 25.935 41.6863 26.0318 41.5912 26.1518C41.4927 26.2693 41.4219 26.4072 41.3842 26.5555C41.3465 26.7038 41.3427 26.8586 41.3732 27.0085L42.619 33.2009L43.4495 37.3293C43.4974 37.5624 43.6248 37.7719 43.8102 37.9224C43.9956 38.0728 44.2276 38.155 44.4669 38.1549H46.4809L45.5673 52.6041H44.4669C44.1916 52.6041 43.9275 52.7128 43.7328 52.9064C43.5381 53.0999 43.4287 53.3624 43.4287 53.6362V56.7324H42.3906C42.1152 56.7324 41.8512 56.8411 41.6565 57.0347C41.4618 57.2282 41.3524 57.4908 41.3524 57.7645V61.8928C41.3524 62.1665 41.4618 62.4291 41.6565 62.6226C41.8512 62.8162 42.1152 62.9249 42.3906 62.9249H63.1539C63.4292 62.9249 63.6933 62.8162 63.888 62.6226C64.0827 62.4291 64.1921 62.1665 64.1921 61.8928V57.7645C64.1921 57.4908 64.0827 57.2282 63.888 57.0347C63.6933 56.8411 63.4292 56.7324 63.1539 56.7324ZM45.3182 36.0908L44.9029 34.0266H47.5814V31.9624H44.4877L43.6571 27.8341H45.5051V29.8983C45.5051 30.172 45.6144 30.4345 45.8091 30.6281C46.0038 30.8216 46.2679 30.9304 46.5432 30.9304H50.6959C50.9712 30.9304 51.2353 30.8216 51.43 30.6281C51.6247 30.4345 51.7341 30.172 51.7341 29.8983V27.8341H53.8104V29.8983C53.8104 30.172 53.9198 30.4345 54.1145 30.6281C54.3092 30.8216 54.5732 30.9304 54.8486 30.9304H59.0012C59.2766 30.9304 59.5406 30.8216 59.7353 30.6281C59.93 30.4345 60.0394 30.172 60.0394 29.8983V27.8341H61.8873L61.0568 31.9624H49.6577V34.0266H60.6415L60.2263 36.0908H45.3182ZM57.9008 52.6041H47.6437L48.5573 38.1549H56.9872L57.9008 52.6041ZM45.5051 54.6682H60.0394V56.7324H45.5051V54.6682ZM62.1157 60.8607H43.4287V58.7966H62.1157V60.8607Z" fill="black"/>
</g>
<defs>
<filter id="filter0_d_164_695" x="0.901917" y="0" width="65.0229" height="66.7645" filterUnits="userSpaceOnUse" color-interpolation-filters="sRGB">
<feFlood flood-opacity="0" result="BackgroundImageFix"/>
<feColorMatrix in="SourceAlpha" type="matrix" values="0 0 0 0 0 0 0 0 0 0 0 0 0 0 0 0 0 0 127 0" result="hardAlpha"/>
<feOffset dx="4" dy="4"/>
<feGaussianBlur stdDeviation="2.5"/>
<feComposite in2="hardAlpha" operator="out"/>
<feColorMatrix type="matrix" values="0 0 0 0 0 0 0 0 0 0 0 0 0 0 0 0 0 0 0.25 0"/>
<feBlend mode="normal" in2="BackgroundImageFix" result="effect1_dropShadow_164_695"/>
<feBlend mode="normal" in="SourceGraphic" in2="effect1_dropShadow_164_695" result="shape"/>
</filter>
<filter id="filter1_d_164_695" x="40.3524" y="24.7699" width="32.8397" height="47.155" filterUnits="userSpaceOnUse" color-interpolation-filters="sRGB">
<feFlood flood-opacity="0" result="BackgroundImageFix"/>
<feColorMatrix in="SourceAlpha" type="matrix" values="0 0 0 0 0 0 0 0 0 0 0 0 0 0 0 0 0 0 127 0" result="hardAlpha"/>
<feOffset dx="4" dy="4"/>
<feGaussianBlur stdDeviation="2.5"/>
<feComposite in2="hardAlpha" operator="out"/>
<feColorMatrix type="matrix" values="0 0 0 0 0 0 0 0 0 0 0 0 0 0 0 0 0 0 0.25 0"/>
<feBlend mode="normal" in2="BackgroundImageFix" result="effect1_dropShadow_164_695"/>
<feBlend mode="normal" in="SourceGraphic" in2="effect1_dropShadow_164_695" result="shape"/>
</filter>
</defs>
</svg>
